# Blender v2.80 (sub 75) OBJ File: 'cross.blend'
# www.blender.org
mtllib cross.mtl
o Text_Text.001
v -0.040586 0.235384 0.000000
v -0.040586 0.040384 0.000000
v -0.235586 0.040384 0.000000
v -0.235586 -0.041616 0.000000
v -0.040586 -0.041616 0.000000
v -0.040586 -0.236616 0.000000
v 0.041414 -0.236616 0.000000
v 0.041414 -0.041616 0.000000
v 0.236414 -0.041616 0.000000
v 0.236414 0.040384 0.000000
v 0.041414 0.040384 0.000000
v 0.041414 0.235384 0.000000
vn 0.0000 -0.0000 1.0000
vn 0.0000 0.0000 -1.0000
usemtl None
s off
f 2//1 12//1 1//1
f 2//1 11//1 12//1
f 4//1 2//1 3//1
f 4//1 11//1 2//1
f 4//1 10//1 11//1
f 4//1 9//1 10//1
f 5//1 9//1 4//1
f 6//1 8//1 5//1
f 8//2 9//2 5//2
f 6//1 7//1 8//1
