# Blender v2.80 (sub 75) OBJ File: ''
# www.blender.org
mtllib player.mtl
o Mball
v 0.600000 2.063842 -0.600000
v 0.600000 1.596000 -0.775880
v 0.775880 1.596000 -0.600000
v 0.600000 0.532000 -0.960788
v 0.960788 0.532000 -0.600000
v 0.600000 -0.532000 -0.960788
v 0.960788 -0.532000 -0.600000
v 1.000000 -0.532000 -0.530196
v 1.000000 0.532000 -0.530196
v 1.115109 -0.532000 -0.200000
v 1.115109 0.532000 -0.200000
v 1.000000 -1.410321 -0.200000
v 1.000000 -1.410321 0.200000
v 1.115109 -0.532000 0.200000
v 1.000000 -0.532000 0.530196
v 1.000000 0.532000 0.530196
v 1.115109 0.532000 0.200000
v 1.000000 1.410321 0.200000
v 1.000000 1.410321 -0.200000
v 0.960788 1.596000 0.200000
v 0.960788 1.596000 -0.200000
v 0.600000 2.555697 0.200000
v 0.600000 2.555697 -0.200000
v 0.530196 2.660000 0.200000
v 0.530196 2.660000 -0.200000
v 0.200000 2.966191 0.200000
v 0.200000 2.966191 -0.200000
v 0.200000 2.660000 0.530196
v -0.200000 2.966191 0.200000
v -0.200000 2.660000 0.530196
v -0.200000 2.555697 0.600000
v 0.200000 2.555697 0.600000
v 0.200000 1.596000 0.960788
v -0.200000 1.596000 0.960788
v -0.200000 1.410321 1.000000
v 0.200000 1.410321 1.000000
v 0.200000 0.532000 1.115109
v -0.200000 0.532000 1.115109
v -0.200000 -0.532000 1.115109
v 0.200000 -0.532000 1.115109
v -0.200000 -1.410321 1.000000
v 0.200000 -1.410321 1.000000
v 0.200000 -1.596000 0.960788
v -0.200000 -1.596000 0.960788
v -0.200000 -2.555697 0.600000
v 0.200000 -2.555697 0.600000
v 0.200000 -2.660000 0.530196
v -0.200000 -2.660000 0.530196
v -0.200000 -2.966191 0.200000
v 0.200000 -2.966191 0.200000
v 0.200000 -2.966191 -0.200000
v -0.200000 -2.966191 -0.200000
v 0.200000 -2.660000 -0.530196
v -0.200000 -2.660000 -0.530196
v -0.200000 -2.555697 -0.600000
v 0.200000 -2.555697 -0.600000
v 0.200000 -1.596000 -0.960788
v -0.200000 -1.596000 -0.960788
v -0.200000 -1.410321 -1.000000
v 0.200000 -1.410321 -1.000000
v 0.200000 -0.532000 -1.115109
v -0.200000 -0.532000 -1.115109
v 0.200000 0.532000 -1.115109
v -0.200000 0.532000 -1.115109
v -0.200000 1.410321 -1.000000
v 0.200000 1.410321 -1.000000
v 0.200000 1.596000 -0.960788
v -0.200000 1.596000 -0.960788
v -0.200000 2.555697 -0.600000
v 0.200000 2.555697 -0.600000
v 0.200000 2.660000 -0.530196
v -0.200000 2.660000 -0.530196
v -0.200000 2.966191 -0.200000
v -0.530196 2.660000 -0.200000
v -0.530196 2.660000 0.200000
v -0.600000 2.555697 0.200000
v -0.600000 2.555697 -0.200000
v -0.960788 1.596000 0.200000
v -0.960788 1.596000 -0.200000
v -1.000000 1.410321 0.200000
v -1.000000 1.410321 -0.200000
v -1.000000 0.532000 -0.530196
v -0.960788 0.532000 -0.600000
v -0.775880 1.596000 -0.600000
v -1.000000 -0.532000 -0.530196
v -0.960788 -0.532000 -0.600000
v -1.000000 -1.410321 -0.200000
v -0.960788 -1.596000 -0.200000
v -0.775880 -1.596000 -0.600000
v -0.600000 -1.596000 -0.775880
v -0.600000 -0.532000 -0.960788
v -0.600000 -2.063842 -0.600000
v -1.000000 -1.410321 0.200000
v -0.960788 -1.596000 0.200000
v -0.600000 -2.555697 0.200000
v -0.600000 -2.555697 -0.200000
v -0.600000 -2.063842 0.600000
v -0.775880 -1.596000 0.600000
v -0.530196 -2.660000 0.200000
v -0.530196 -2.660000 -0.200000
v -1.000000 -0.532000 0.530196
v -0.960788 -0.532000 0.600000
v -1.000000 0.532000 0.530196
v -0.960788 0.532000 0.600000
v -0.600000 -0.532000 0.960788
v -0.600000 0.532000 0.960788
v -0.530196 0.532000 1.000000
v -0.530196 -0.532000 1.000000
v -1.115109 -0.532000 0.200000
v -1.115109 0.532000 0.200000
v -1.115109 -0.532000 -0.200000
v -1.115109 0.532000 -0.200000
v -0.600000 -1.596000 0.775880
v -0.600000 0.532000 -0.960788
v -0.530196 -0.532000 -1.000000
v -0.530196 0.532000 -1.000000
v -0.600000 1.596000 -0.775880
v -0.600000 2.063842 -0.600000
v -0.775880 1.596000 0.600000
v -0.600000 2.063842 0.600000
v -0.600000 1.596000 0.775880
v 0.530196 -0.532000 -1.000000
v 0.530196 0.532000 -1.000000
v 0.600000 -2.063842 -0.600000
v 0.600000 -1.596000 -0.775880
v 0.775880 -1.596000 -0.600000
v 0.600000 -2.555697 -0.200000
v 0.960788 -1.596000 -0.200000
v 0.600000 -2.555697 0.200000
v 0.960788 -1.596000 0.200000
v 0.600000 -2.063842 0.600000
v 0.775880 -1.596000 0.600000
v 0.600000 -1.596000 0.775880
v 0.600000 -0.532000 0.960788
v 0.960788 -0.532000 0.600000
v 0.600000 0.532000 0.960788
v 0.960788 0.532000 0.600000
v 0.600000 1.596000 0.775880
v 0.775880 1.596000 0.600000
v 0.600000 2.063842 0.600000
v 0.530196 -0.532000 1.000000
v 0.530196 0.532000 1.000000
v 0.530196 -2.660000 -0.200000
v 0.530196 -2.660000 0.200000
vn 0.8010 0.2190 -0.5571
vn 0.5578 0.2205 -0.8001
vn 0.6602 0.3579 -0.6602
vn 0.8002 0.0757 -0.5949
vn 0.5872 0.0712 -0.8062
vn 0.8062 -0.0712 -0.5872
vn 0.5949 -0.0757 -0.8002
vn 0.9050 0.0792 -0.4179
vn 0.9124 -0.0722 -0.4029
vn 0.9841 0.0638 -0.1655
vn 0.9841 -0.0638 -0.1655
vn 0.9626 -0.1704 -0.2106
vn 0.9841 -0.0638 0.1655
vn 0.9633 -0.1660 0.2111
vn 0.9050 -0.0792 0.4179
vn 0.9841 0.0638 0.1655
vn 0.9124 0.0722 0.4029
vn 0.9626 0.1704 0.2106
vn 0.9633 0.1660 -0.2111
vn 0.9414 0.2642 -0.2094
vn 0.9402 0.2716 0.2056
vn 0.8290 0.4766 -0.2925
vn 0.8329 0.4674 0.2963
vn 0.7202 0.6203 -0.3107
vn 0.7297 0.6049 0.3186
vn 0.3283 0.8857 -0.3283
vn 0.3283 0.8857 0.3283
vn 0.3186 0.6049 0.7297
vn -0.3053 0.6171 0.7252
vn -0.3283 0.8857 0.3283
vn 0.2963 0.4674 0.8329
vn -0.2687 0.4606 0.8460
vn -0.2094 0.2642 0.9414
vn 0.2094 0.2642 0.9414
vn 0.2111 0.1660 0.9633
vn -0.2111 0.1660 0.9633
vn -0.1655 0.0638 0.9841
vn 0.1655 0.0638 0.9841
vn 0.1655 -0.0638 0.9841
vn -0.1655 -0.0638 0.9841
vn 0.2106 -0.1704 0.9626
vn -0.2106 -0.1704 0.9626
vn -0.2056 -0.2716 0.9402
vn 0.2056 -0.2716 0.9402
vn 0.2963 -0.4673 0.8329
vn -0.2887 -0.4740 0.8318
vn -0.3066 -0.6201 0.7221
vn 0.3186 -0.6049 0.7297
vn 0.3283 -0.8857 0.3283
vn -0.3283 -0.8857 0.3283
vn -0.3283 -0.8857 -0.3283
vn 0.3283 -0.8857 -0.3283
vn -0.3186 -0.6049 -0.7297
vn 0.3186 -0.6049 -0.7297
vn 0.2963 -0.4674 -0.8329
vn -0.2963 -0.4674 -0.8329
vn -0.2088 -0.2654 -0.9412
vn 0.2094 -0.2642 -0.9414
vn 0.2111 -0.1660 -0.9633
vn -0.2094 -0.1675 -0.9633
vn -0.1655 -0.0638 -0.9841
vn 0.1655 -0.0638 -0.9841
vn -0.1655 0.0638 -0.9841
vn 0.1655 0.0638 -0.9841
vn 0.2106 0.1704 -0.9626
vn -0.2373 0.1764 -0.9553
vn -0.2113 0.2650 -0.9408
vn 0.2056 0.2716 -0.9402
vn 0.2963 0.4673 -0.8329
vn -0.2925 0.4766 -0.8290
vn -0.3107 0.6203 -0.7202
vn 0.3186 0.6049 -0.7297
vn -0.3283 0.8857 -0.3283
vn -0.7297 0.6049 -0.3186
vn -0.7221 0.6201 0.3066
vn -0.8329 0.4673 -0.2963
vn -0.8318 0.4740 0.2887
vn -0.9402 0.2716 -0.2056
vn -0.9414 0.2642 0.2094
vn -0.9626 0.1704 -0.2106
vn -0.9633 0.1660 0.2111
vn -0.8001 0.2205 -0.5578
vn -0.8062 0.0712 -0.5872
vn -0.9124 0.0722 -0.4029
vn -0.8002 -0.0757 -0.5949
vn -0.9050 -0.0792 -0.4179
vn -0.8010 -0.2190 -0.5571
vn -0.9414 -0.2642 -0.2094
vn -0.9633 -0.1660 -0.2111
vn -0.5991 -0.0688 -0.7977
vn -0.5573 -0.2199 -0.8007
vn -0.6597 -0.3598 -0.6597
vn -0.9402 -0.2716 0.2056
vn -0.9626 -0.1704 0.2106
vn -0.8329 -0.4674 -0.2963
vn -0.8460 -0.4606 0.2687
vn -0.8001 -0.2205 0.5578
vn -0.6606 -0.3567 0.6605
vn -0.7297 -0.6049 -0.3186
vn -0.7252 -0.6171 0.3053
vn -0.8062 -0.0712 0.5872
vn -0.9124 -0.0722 0.4029
vn -0.8002 0.0757 0.5949
vn -0.9050 0.0792 0.4179
vn -0.5949 0.0757 0.8002
vn -0.5872 -0.0712 0.8062
vn -0.4029 -0.0722 0.9124
vn -0.4179 0.0792 0.9050
vn -0.9841 0.0638 0.1655
vn -0.9841 -0.0638 0.1655
vn -0.9841 0.0638 -0.1655
vn -0.9841 -0.0638 -0.1655
vn -0.5578 -0.2205 0.8001
vn -0.5950 0.0757 -0.8001
vn -0.4179 0.0792 -0.9050
vn -0.4136 -0.0708 -0.9077
vn -0.5548 0.2181 -0.8029
vn -0.6602 0.3579 -0.6602
vn -0.8010 0.2190 0.5571
vn -0.6605 0.3567 0.6606
vn -0.5571 0.2190 0.8010
vn 0.4029 0.0722 -0.9124
vn 0.4179 -0.0792 -0.9050
vn 0.5571 -0.2190 -0.8010
vn 0.6597 -0.3598 -0.6597
vn 0.8001 -0.2205 -0.5578
vn 0.9402 -0.2716 -0.2056
vn 0.8329 -0.4674 -0.2963
vn 0.9414 -0.2642 0.2094
vn 0.8290 -0.4766 0.2925
vn 0.8010 -0.2190 0.5571
vn 0.6602 -0.3579 0.6602
vn 0.5578 -0.2205 0.8001
vn 0.8002 -0.0757 0.5949
vn 0.5872 -0.0712 0.8062
vn 0.8062 0.0712 0.5872
vn 0.5949 0.0757 0.8002
vn 0.8001 0.2205 0.5578
vn 0.5571 0.2190 0.8010
vn 0.6597 0.3598 0.6597
vn 0.4179 0.0792 0.9050
vn 0.4029 -0.0722 0.9124
vn 0.7202 -0.6203 0.3107
vn 0.7297 -0.6049 -0.3186
usemtl None
s 1
f 3//1 2//2 1//3
f 2//2 3//1 5//4 4//5
f 4//5 5//4 7//6 6//7
f 7//6 5//4 9//8 8//9
f 9//8 11//10 10//11 8//9
f 8//9 10//11 12//12
f 12//12 10//11 14//13 13//14
f 14//13 15//15 13//14
f 14//13 17//16 16//17 15//15
f 16//17 17//16 18//18
f 17//16 11//10 19//19 18//18
f 19//19 21//20 20//21 18//18
f 20//21 21//20 23//22 22//23
f 23//22 25//24 24//25 22//23
f 24//25 25//24 27//26 26//27
f 28//28 24//25 26//27
f 30//29 28//28 26//27 29//30
f 32//31 28//28 30//29 31//32
f 34//33 33//34 32//31 31//32
f 36//35 33//34 34//33 35//36
f 38//37 37//38 36//35 35//36
f 40//39 37//38 38//37 39//40
f 42//41 40//39 39//40 41//42
f 44//43 43//44 42//41 41//42
f 46//45 43//44 44//43 45//46
f 48//47 47//48 46//45 45//46
f 50//49 47//48 48//47 49//50
f 52//51 51//52 50//49 49//50
f 54//53 53//54 51//52 52//51
f 56//55 53//54 54//53 55//56
f 58//57 57//58 56//55 55//56
f 60//59 57//58 58//57 59//60
f 62//61 61//62 60//59 59//60
f 64//63 63//64 61//62 62//61
f 66//65 63//64 64//63 65//66
f 68//67 67//68 66//65 65//66
f 70//69 67//68 68//67 69//70
f 72//71 71//72 70//69 69//70
f 27//26 71//72 72//71 73//73
f 72//71 74//74 73//73
f 73//73 74//74 75//75 29//30
f 75//75 74//74 77//76 76//77
f 77//76 79//78 78//79 76//77
f 78//79 79//78 81//80 80//81
f 84//82 83//83 82//84 81//80
f 79//78 84//82 81//80
f 82//84 83//83 86//85 85//86
f 86//85 89//87 88//88 87//89
f 85//86 86//85 87//89
f 89//87 86//85 91//90 90//91
f 89//87 90//91 92//92
f 87//89 88//88 94//93 93//94
f 94//93 88//88 96//95 95//96
f 98//97 94//93 95//96 97//98
f 96//95 100//99 99//100 95//96
f 98//97 102//101 101//102 93//94
f 94//93 98//97 93//94
f 102//101 104//103 103//104 101//102
f 106//105 104//103 102//101 105//106
f 108//107 107//108 106//105 105//106
f 103//104 110//109 109//110 101//102
f 110//109 103//104 80//81
f 110//109 112//111 111//112 109//110
f 105//106 102//101 98//97 113//113
f 101//102 109//110 93//94
f 109//110 111//112 87//89 93//94
f 111//112 85//86 87//89
f 86//85 83//83 114//114 91//90
f 114//114 116//115 115//116 91//90
f 111//112 112//111 82//84 85//86
f 83//83 84//82 117//117 114//114
f 117//117 84//82 118//118
f 104//103 119//119 78//79 80//81
f 103//104 104//103 80//81
f 81//80 112//111 110//109 80//81
f 118//118 84//82 79//78 77//76
f 76//77 78//79 119//119 120//120
f 119//119 121//121 120//120
f 64//63 116//115 65//66
f 63//64 123//122 122//123 61//62
f 115//116 116//115 64//63 62//61
f 61//62 122//123 60//59
f 115//116 62//61 59//60
f 57//58 125//124 124//125 56//55
f 125//124 126//126 124//125
f 124//125 126//126 128//127 127//128
f 127//128 128//127 130//129 129//130
f 129//130 130//129 132//131 131//132
f 132//131 133//133 131//132
f 132//131 135//134 134//135 133//133
f 135//134 137//136 136//137 134//135
f 137//136 139//138 138//139 136//137
f 138//139 139//138 140//140
f 136//137 142//141 141//142 134//135
f 144//143 143//144 127//128 129//130
f 90//91 58//57 55//56 92//92
f 127//128 143//144 53//54 56//55
f 124//125 127//128 56//55
f 55//56 54//53 100//99 96//95
f 92//92 55//56 96//95
f 100//99 54//53 52//51
f 51//52 143//144 144//143 50//49
f 99//100 100//99 52//51 49//50
f 144//143 47//48 50//49
f 48//47 99//100 49//50
f 144//143 129//130 131//132 46//45
f 47//48 144//143 46//45
f 99//100 48//47 45//46 97//98
f 95//96 99//100 97//98
f 45//46 44//43 113//113 97//98
f 133//133 134//135 141//142 42//41
f 43//44 133//133 42//41
f 41//42 108//107 105//106 113//113
f 44//43 41//42 113//113
f 141//142 40//39 42//41
f 39//40 108//107 41//42
f 141//142 142//141 37//38 40//39
f 38//37 107//108 108//107 39//40
f 107//108 38//37 35//36
f 136//137 138//139 33//34 36//35
f 142//141 136//137 36//35
f 35//36 34//33 121//121 106//105
f 107//108 35//36 106//105
f 33//34 138//139 140//140 32//31
f 121//121 34//33 31//32 120//120
f 75//75 30//29 29//30
f 26//27 27//26 73//73 29//30
f 25//24 23//22 1//3 70//69
f 71//72 25//24 70//69
f 16//17 137//136 135//134 15//15
f 130//129 128//127 12//12 13//14
f 10//11 11//10 17//16 14//13
f 122//123 123//122 4//5 6//7
f 5//4 3//1 21//20 19//19
f 9//8 5//4 19//19
f 2//2 4//5 123//122 66//65
f 67//68 2//2 66//65
f 6//7 7//6 126//126 125//124
f 21//20 3//1 1//3 23//22
f 11//10 9//8 19//19
f 126//126 7//6 8//9 12//12
f 128//127 126//126 12//12
f 139//138 20//21 22//23 140//140
f 139//138 137//136 16//17 18//18
f 20//21 139//138 18//18
f 135//134 132//131 130//129 13//14
f 15//15 135//134 13//14
f 1//3 2//2 67//68 70//69
f 123//122 63//64 66//65
f 6//7 125//124 57//58 60//59
f 122//123 6//7 60//59
f 25//24 71//72 27//26
f 53//54 143//144 51//52
f 22//23 24//25 28//28 32//31
f 140//140 22//23 32//31
f 37//38 142//141 36//35
f 131//132 133//133 43//44 46//45
f 69//70 68//67 117//117 118//118
f 68//67 65//66 116//115 114//114
f 117//117 68//67 114//114
f 115//116 59//60 58//57 90//91
f 91//90 115//116 90//91
f 72//71 69//70 118//118 77//76
f 74//74 72//71 77//76
f 82//84 112//111 81//80
f 88//88 89//87 92//92 96//95
f 30//29 75//75 76//77 120//120
f 31//32 30//29 120//120
f 121//121 119//119 104//103 106//105
f 113//113 98//97 97//98
